<svg xmlns="http://www.w3.org/2000/svg" width="64" height="64" viewBox="0 0 16.933 16.933" id="muslim"><path d="M8.07.53a3.298 3.298 0 0 0-3.308 3.305v.12c.696.16 1.896.277 3.359.277h.691c1.463 0 2.663-.116 3.359-.277v-.12A3.3 3.3 0 0 0 8.862.53zM4.762 5.136c.163-.071.341-.11.53-.11v-.439a8.598 8.598 0 0 1-.53-.092Zm7.409-.64c-.16.033-.338.064-.529.091v.44c.188 0 .367.038.529.109zm-6.35.156V6.88a2.376 2.376 0 0 0 2.38 2.38h.53a2.376 2.376 0 0 0 2.381-2.38V4.653c-.67.07-1.457.109-2.3.109h-.691c-.843 0-1.63-.039-2.3-.109zm-.53.903a.794.794 0 0 0 0 1.587l.013-.001a3.26 3.26 0 0 1-.012-.263zm6.35 1.323c0 .089-.003.176-.011.263l.012.001a.794.794 0 0 0 0-1.587zM6.615 9.92c0 .949.763 1.72 1.72 1.72h.265c.958 0 1.72-.771 1.72-1.72v-.6c-.457.297-1.001.468-1.587.468h-.53a2.9 2.9 0 0 1-1.587-.469zM5.291 9.79a3.959 3.959 0 0 0-3.968 3.968v2.118c0 .288.23.53.528.53h1.853v-.53c0-.351.53-.355.53 0v.53h3.594l-.607-.608a.265.265 0 0 1-.077-.186v-3.78a2.243 2.243 0 0 1-1.06-1.91V9.79zm5.557 0v.132a2.244 2.244 0 0 1-2.249 2.25h-.265c-.23 0-.452-.035-.661-.099V15.5l.903.904H12.7v-.529c0-.353.53-.353.53 0v.53h1.852c.298 0 .528-.242.528-.53v-2.118a3.959 3.959 0 0 0-3.967-3.968zm-2.381 2.91a.265.265 0 1 1 0 .53.265.265 0 0 1 0-.53zm0 1.059a.265.265 0 1 1 0 .529.265.265 0 0 1 0-.53zm0 1.059a.265.265 0 1 1 0 .529.265.265 0 0 1 0-.53z" color="#000" font-family="sans-serif" font-weight="400" overflow="visible" style="line-height:normal;font-variant-ligatures:normal;font-variant-position:normal;font-variant-caps:normal;font-variant-numeric:normal;font-variant-alternates:normal;font-feature-settings:normal;text-indent:0;text-align:start;text-decoration-line:none;text-decoration-style:solid;text-decoration-color:#000;text-transform:none;text-orientation:mixed;shape-padding:0;isolation:auto;mix-blend-mode:normal"></path></svg>