<?xml version="1.0" encoding="iso-8859-1"?>
<!-- Uploaded to: SVG Repo, www.svgrepo.com, Generator: SVG Repo Mixer Tools -->
<svg fill="#000000" height="800px" width="800px" version="1.1" id="Layer_1" xmlns="http://www.w3.org/2000/svg" xmlns:xlink="http://www.w3.org/1999/xlink" 
	 viewBox="0 0 512 512" xml:space="preserve">
<g>
	<g>
		<path d="M488.842,243.599l-60.624-60.898V96.582c0-5.141-5.262-8.145-10.403-8.145h-86.119l-60.897-61.478
			c-3.636-3.634-9.529-3.343-13.166,0.291l-60.897,61.188h-86.122c-5.141,0-8.215,3.004-8.215,8.145v86.12l-61.443,60.897
			c-1.745,1.747-3,4.114-3,6.583s1.391,4.836,3.136,6.583l61.307,60.897v86.12c0,5.141,3.074,10.473,8.215,10.473h86.122
			l60.897,60.314c1.818,1.818,4.2,2.436,6.583,2.436c2.383,0,4.765-0.473,6.583-2.291l60.895-60.459h86.12
			c5.141,0,10.403-5.332,10.403-10.473v-86.12l60.351-60.897C492.204,253.128,492.477,247.235,488.842,243.599z M102.4,291.33
			l-41.149-41.148l41.149-41.149V291.33z M264.216,47.287l41.149,41.149h-82.298L264.216,47.287z M121.018,107.055h57.1l-57.1,57.03
			V107.055z M121.018,395.636v-59.357l57.1,59.357H121.018z M264.216,455.402l-41.148-41.148h82.295L264.216,455.402z
			 M409.6,395.636h-59.287l59.287-59.357V395.636z M409.6,309.95l-85.618,85.686H204.449l-83.431-85.689V190.415l83.431-83.36
			h119.534l85.617,83.359V309.95z M409.6,164.083l-59.286-57.028H409.6V164.083z M428.218,291.332v-82.3l41.15,41.15
			L428.218,291.332z"/>
	</g>
</g>
<g>
	<g>
		<path d="M502.691,4.655H9.309C4.168,4.655,0,8.823,0,13.964v484.073c0,5.141,4.168,9.309,9.309,9.309h493.382
			c5.141,0,9.309-4.168,9.309-9.309V13.964C512,8.823,507.832,4.655,502.691,4.655z M493.382,488.727H18.618V23.273h474.764V488.727
			z"/>
	</g>
</g>
</svg>